<svg xmlns="http://www.w3.org/2000/svg" viewBox="0 0 512 512" xmlns:bx="https://boxy-svg.com">
  <defs>
    <bx:export>
      <bx:file format="svg" path="Unbetitelt.svg"></bx:file>
    </bx:export>
  </defs>
  <g transform="matrix(0.040086, 0.000334, 0.000388, -0.046622, -6143.914551, -5245.273437)" fill="#000000" stroke="none" style="transform-origin: 6401.64px 5503.96px;">
    <path d="M6 11002 c-3 -5 45 -37 107 -72 490 -277 691 -396 1007 -598 995
-638 1910 -1368 2728 -2177 706 -697 1241 -1332 1769 -2099 502 -729 949
-1556 1276 -2361 461 -1134 749 -2369 835 -3585 l7 -105 1011 -3 c920 -2 1012
-1 1018 14 10 25 -130 600 -251 1034 -839 3018 -2256 5473 -4188 7258 -1121
1035 -2360 1798 -3710 2285 -448 161 -919 287 -1411 376 -87 16 -166 32 -175
36 -10 3 -20 2 -23 -3z"></path>
    <path d="M11440 9543 c-284 -43 -519 -159 -706 -347 -200 -201 -319 -457 -343
-736 -20 -233 25 -458 130 -661 344 -660 1214 -847 1808 -389 223 173 378 423
435 700 38 188 41 241 22 367 -31 196 -84 356 -163 487 -221 368 -617 590
-1043 585 -63 -1 -126 -3 -140 -6z"></path>
    <path d="M6140 9249 c-315 -13 -587 -49 -937 -125 -18 -3 -33 -10 -33 -13 0
-4 78 -15 173 -25 1407 -142 2559 -472 3332 -953 691 -431 1094 -961 1211
-1595 22 -117 29 -380 15 -508 -46 -400 -214 -793 -479 -1120 -24 -30 -111
-127 -193 -215 -291 -315 -432 -518 -475 -687 -41 -158 34 -257 206 -274 124
-11 348 42 490 117 67 36 271 187 395 293 123 106 352 333 440 436 368 434
564 874 607 1363 46 527 -157 1110 -562 1617 -103 128 -390 417 -522 524 -765
622 -1781 1031 -2838 1141 -139 14 -549 36 -625 33 -16 -1 -109 -5 -205 -9z"></path>
  </g>
</svg>